# xmcd
#
# Track frame offsets: 
#        150
#        20227
#        32619
#        53961
#        67448
#        82505
#        99947
#        113449
#        131456
#        143848
#        168005
#        185687
#        204393
#        220073
#        234070
#
# Disc length: 3403 seconds
#
# Revision: 1
# Processed by: cddbd v1.5.2PL0 Copyright (c) Steve Scherf et al.
# Submitted via: ExactAudioCopy v0.95b4
#
DISCID=c00d490f
DTITLE=Various Artist - F*** Me I'm Famous! Paris, London, Ibiza, Miami. (Mix
DTITLE=ed By David Guetta) [CD 2)
DYEAR=1900
DGENRE=
TTITLE0=Tiga. - Louder Than A Bomb.
TTITLE1=Coburn. - We Interrupt This Program.
TTITLE2=Timo Maas. - First Day. (Buck Project Dub)
TTITLE3=Tiefschwarz feat. Chikinki. - Wait and See. (Alter Ego Rmx)
TTITLE4=Lower East Side. - Sword Fight.
TTITLE5=Fat Phaze. - It's Magic. (Lottie and Serge Santiago's Version)
TTITLE6=Slam feat. Billie Ray Martin. - Bright Lights Fading.
TTITLE7=John Tejada. - Sweat. (On The Walls)
TTITLE8=Andre Kraml feat. Schad Privat. - Safari.
TTITLE9=Yoshimoto. - Du What U Du. (Trentemoller Rmx)
TTITLE10=Shiny Grey. - You Made A Promisse. (F*** Me I'm Famous Rmx)
TTITLE11=The Chemical Brothers. - Believe.
TTITLE12=Jan Francisco Meets Joseph Armani. - Infatuation.
TTITLE13=Etienne De Crecy Pres. Super Discount 2. - Someone Like You. 
TTITLE13=(Fast Track Vocal Mix)
TTITLE14=Chab feat. JD Davis. - Closer To Me.
EXTD=
EXTT0=
EXTT1=
EXTT2=
EXTT3=
EXTT4=
EXTT5=
EXTT6=
EXTT7=
EXTT8=
EXTT9=
EXTT10=
EXTT11=
EXTT12=
EXTT13=
EXTT14=
PLAYORDER=
